<?xml version="1.0" encoding="utf-8"?>
<!-- Generator: Adobe Illustrator 24.3.0, SVG Export Plug-In . SVG Version: 6.00 Build 0)  -->
<svg version="1.1" id="Layer_1" xmlns="http://www.w3.org/2000/svg" xmlns:xlink="http://www.w3.org/1999/xlink" x="0px" y="0px"
	 viewBox="0 0 81.9934616 81.4725571" style="enable-background:new 0 0 81.9934616 81.4725571;" xml:space="preserve">
<style type="text/css">
	.st0{fill:#EDB129;}
	.st1{fill:#AF6E17;}
</style>
<g>
	<path class="st0" d="M65.2387314,17.4852772l-22.552002,22.5499973h31.8920059
		C74.4067383,31.5582752,71.1097336,23.6002769,65.2387314,17.4852772z M56.6737289,27.5402775
		c0.6780014-0.6759987,1.7729988-0.6759987,2.4500008,0c0.6760025,0.6769981,0.6760025,1.7729988,0,2.4490013
		c-0.6780014,0.6769981-1.7739983,0.6769981-2.4500008,0C55.9967308,29.3132763,55.9967308,28.2162762,56.6737289,27.5402775z
		 M51.7147293,38.1322746c-0.6769981,0.6759987-1.7739983,0.6759987-2.4500008,0
		c-0.6759987-0.6769981-0.6769981-1.7719994,0-2.4500008c0.6780014-0.6759987,1.7739983-0.6759987,2.4500008,0
		S52.3917313,37.4552765,51.7147293,38.1322746z M59.5587273,38.022274c-1.1699982,1.1689987-3.0649986,1.1689987-4.2340012,0
		c-1.1689987-1.1689987-1.1689987-3.0639992,0-4.2340012s3.064003-1.1689987,4.2340012,0
		C60.7267342,34.9572754,60.7267342,36.8522758,59.5587273,38.022274z M66.5127335,35.5912743
		c-0.9069977,0.9080009-2.3779984,0.9070015-3.2850075,0c-0.9059982-0.9059982-0.9069977-2.3759995,0-3.2840004
		c0.9070015-0.9069996,2.3780022-0.9069996,3.2850075,0C67.4187317,33.2152748,67.4187317,34.685276,66.5127335,35.5912743z
		 M66.7847366,28.3452778c-1.1689987,1.1689987-3.0650063,1.1689987-4.234005,0s-1.1689987-3.0639992,0.0009995-4.2340012
		c1.1689987-1.1679993,3.0640068-1.1679993,4.2330055,0C67.9537354,25.2802753,67.9537354,27.1762753,66.7847366,28.3452778z
		 M69.1877365,38.1682739c-0.677002-0.6769981-0.677002-1.7729988,0-2.4490013c0.677002-0.6769981,1.7740021-0.6769981,2.4489975,0
		c0.677002,0.6749992,0.677002,1.7719994,0,2.4490013C70.9607315,38.8442764,69.8647308,38.8442764,69.1877365,38.1682739z"/>
	<path class="st0" d="M43.6567307,44.3882751l-1.9599991-1.9609985v31.8919983
		c8.4780006-0.1729965,16.4350014-3.4680023,22.5510025-9.3409958L43.6567307,44.3882751z M44.0227318,48.9912758
		c0.6769981-0.6759987,1.7729988-0.6759987,2.4490013,0c0.6780014,0.6769981,0.6780014,1.7729988,0,2.4490013
		c-0.6749992,0.6759987-1.7719994,0.6769981-2.4490013,0S43.348732,49.6672745,44.0227318,48.9912758z M44.1347313,55.0502739
		c1.1689987-1.1689987,3.0639992-1.1689987,4.2330017,0c1.1699982,1.1689987,1.1699982,3.0639992,0.0009995,4.2329979
		c-1.1699982,1.1699982-3.0649986,1.1699982-4.2340012,0C42.9637299,58.1152725,42.9647293,56.2192764,44.1347313,55.0502739z
		 M46.4367294,71.3642731c-0.6759987,0.6760025-1.7719994,0.6760025-2.4480019,0
		c-0.6780014-0.677002-0.6769981-1.7730026,0-2.4489975c0.6759987-0.6760025,1.7709999-0.677002,2.447998,0
		S47.1137314,70.6882782,46.4367294,71.3642731z M49.848732,66.2382736c-0.9059982,0.9069977-2.3769989,0.9069977-3.2840004,0
		s-0.9070015-2.3769989,0-3.2850037c0.9070015-0.9069977,2.3779984-0.9069977,3.2840004,0
		C50.7557297,63.8612747,50.7557297,65.3312759,49.848732,66.2382736z M52.166729,56.3992729
		c0.6759987-0.6759987,1.7719994-0.6759987,2.4500008,0c0.6749992,0.6759987,0.6749992,1.7729988,0,2.4500008
		c-0.6780014,0.677002-1.7739983,0.677002-2.4500008,0C51.4907303,58.1732712,51.4907303,57.0752754,52.166729,56.3992729z
		 M53.8097305,66.5112762c-1.1689987-1.1689987-1.1689987-3.0650024,0-4.2340012s3.0639992-1.1689987,4.2329979,0
		c1.1699982,1.1679993,1.1699982,3.064003,0,4.2330017C56.8747292,67.6812744,54.9787292,67.6812744,53.8097305,66.5112762z"/>
	<path class="st0" d="M74.5787354,41.4362755H42.6867294l22.552002,22.5509987
		C71.1097336,57.8712769,74.4067383,49.9132729,74.5787354,41.4362755z M68.0357361,44.3602753
		c1.6529999,0,2.9940033,1.3400002,2.9940033,2.9939995s-1.3410034,2.9939995-2.9940033,2.9939995
		c-1.6539993,0-2.9940033-1.3400002-2.9940033-2.9939995S66.3817368,44.3602753,68.0357361,44.3602753z M50.4597321,46.6112747
		c-0.9580002,0-1.7319984-0.7750015-1.7319984-1.7319984c0-0.9560013,0.7739983-1.7319984,1.7319984-1.7319984
		c0.9560013,0,1.730999,0.776001,1.730999,1.7319984C52.190731,45.8362732,51.4157295,46.6112747,50.4597321,46.6112747z
		 M56.0837326,52.0802765c-1.6539993,0-2.9949989-1.3400002-2.9949989-2.9939995s1.3409996-2.9939995,2.9949989-2.9939995
		c1.6530037,0,2.993,1.3400002,2.993,2.9939995S57.7367287,52.0802765,56.0837326,52.0802765z M59.7237282,44.3602753
		c0-0.9560013,0.7750015-1.7319984,1.7320023-1.7319984c0.9560013,0,1.7310028,0.776001,1.7310028,1.7319984
		c0,0.9570007-0.7750015,1.7319984-1.7310028,1.7319984C60.4987297,46.0922737,59.7237282,45.317276,59.7237282,44.3602753z
		 M60.3957329,52.9572754c0-1.2830009,1.0400009-2.322998,2.3219986-2.322998c1.2830009,0,2.3230019,1.0400009,2.3230019,2.322998
		c0,1.2820015-1.0400009,2.3219986-2.3230019,2.3219986C61.4357338,55.2782745,60.3957329,54.2392731,60.3957329,52.9572754z
		 M62.7897301,58.9922714c0-0.9570007,0.7750015-1.7320023,1.7310066-1.7320023
		c0.9580002,0,1.7320023,0.7750015,1.7320023,1.7320023s-0.7740021,1.7320023-1.7320023,1.7320023
		C63.5647316,60.7252731,62.7897301,59.9492722,62.7897301,58.9922714z"/>
	<path class="st0" d="M40.2957306,39.0452728V7.1532764c-8.4760017,0.1719999-16.434,3.4689999-22.5510006,9.3409996
		L40.2957306,39.0452728z M38.1237297,32.6092758c-0.6769981,0.6759987-1.7719994,0.6759987-2.4490013,0
		c-0.6769981-0.6769962-0.6769981-1.7729969,0-2.4499989c0.6759987-0.6749992,1.7719994-0.6759987,2.4490013,0
		C38.8007317,30.8362751,38.7997322,31.9322758,38.1237297,32.6092758z M38.0137291,26.5492764
		c-1.1689987,1.1689987-3.0639992,1.1689987-4.2340012,0c-1.1689987-1.1689987-1.1689987-3.0650005,0-4.2340012
		c1.1689987-1.1679993,3.0649986-1.1679993,4.2340012,0C39.1837311,23.4852772,39.1827316,25.3802776,38.0137291,26.5492764z
		 M35.7097321,10.2362766c0.6759987-0.6760006,1.7719994-0.6760006,2.4500008,0c0.6759987,0.677,0.6759987,1.7740002,0,2.4500008
		c-0.6769981,0.6760006-1.7729988,0.6760006-2.4500008,0S35.0327301,10.9122772,35.7097321,10.2362766z M32.2987289,15.3612766
		c0.9070015-0.9069996,2.3779984-0.9069996,3.2849998,0s0.9059982,2.3770008-0.0009995,3.2849998
		c-0.9059982,0.9060001-2.3769989,0.9060001-3.2840004,0C31.3917313,17.7382774,31.3917313,16.2682762,32.2987289,15.3612766z
		 M29.980732,25.2002773c-0.6769981,0.6759987-1.7729988,0.6759987-2.4490013,0
		c-0.6769981-0.677-0.6769981-1.7730007-0.0009995-2.4500008c0.6769981-0.6760006,1.7729988-0.6760006,2.4490013,0
		C30.6567307,23.4272766,30.6567307,24.5242767,29.980732,25.2002773z M28.3377304,15.0892773
		c1.1689987,1.1690006,1.1689987,3.066,0,4.2340012c-1.1699982,1.1690006-3.0650005,1.1690006-4.2340012,0
		s-1.1690006-3.0639992,0-4.2340012C25.2717304,13.9202766,27.1677322,13.9202766,28.3377304,15.0892773z"/>
	<path class="st0" d="M40.2957306,74.3192749V42.4272766L17.74473,64.9792709
		C23.8617306,70.8512726,31.8197327,74.1462784,40.2957306,74.3192749z M34.8017311,70.7562714
		c-1.6529999,0-2.993-1.3410034-2.993-2.9940033c0-1.6539993,1.3400002-2.9940033,2.993-2.9940033
		s2.9939995,1.3399963,2.9939995,2.9940033C37.7957306,69.4152756,36.454731,70.7562714,34.8017311,70.7562714z
		 M39.5267296,61.1812744c0,0.9580002-0.7750015,1.7320023-1.730999,1.7320023s-1.730999-0.7750015-1.730999-1.7320023
		c0-0.9560013,0.7750015-1.7320023,1.730999-1.7320023S39.5267296,60.2252731,39.5267296,61.1812744z M37.2767296,48.4532738
		c0.9560013,0,1.730999,0.776001,1.730999,1.7319984c0,0.9570007-0.7750015,1.730999-1.730999,1.730999
		c-0.9570007,0-1.7319984-0.7739983-1.7319984-1.730999C35.5447311,49.2292747,36.3197327,48.4532738,37.2767296,48.4532738z
		 M33.0697327,52.8152733c1.6529999,0,2.9939995,1.3400002,2.9939995,2.9939995s-1.3409996,2.9940033-2.9939995,2.9940033
		s-2.993-1.3399963-2.993-2.9939995S31.416729,52.8152733,33.0697327,52.8152733z M29.1997299,60.1222763
		c1.2820015,0,2.3219986,1.0400009,2.3219986,2.3219986c0,1.2829971-1.0400009,2.322998-2.3219986,2.322998
		c-1.2830009,0-2.3230019-1.0400009-2.3230019-2.322998C26.8767319,61.1622772,27.916729,60.1222763,29.1997299,60.1222763z
		 M23.1637306,62.5162735c0.9549999,0,1.730999,0.7750015,1.730999,1.7320023s-0.776001,1.7320023-1.730999,1.7320023
		c-0.9570007,0-1.7320004-0.7750015-1.7320004-1.7320023S22.2067299,62.5162735,23.1637306,62.5162735z"/>
	<path class="st0" d="M16.7547302,63.9882736l22.552002-22.5519981H7.4137316
		C7.5857315,49.9132729,10.8827314,57.8712769,16.7547302,63.9882736z M25.4737301,54.0592766
		c-0.6760006,0.6759987-1.7730007,0.6759987-2.4489994,0c-0.677-0.6759987-0.677-1.7729988,0-2.4490013
		c0.677-0.6769981,1.7740002-0.6769981,2.4489994,0C26.1497307,52.2872734,26.1497307,53.3832741,25.4737301,54.0592766z
		 M30.4337311,43.4672737c0.6769981-0.6769981,1.7729988-0.6759987,2.4490013,0
		c0.6769981,0.6759987,0.6769981,1.7719994,0,2.4490013c-0.6769981,0.6769981-1.7729988,0.6769981-2.4490013,0
		C29.7577324,45.2402763,29.7567291,44.1442757,30.4337311,43.4672737z M22.5897312,43.5782738
		c1.1700001-1.1699982,3.0640011-1.1699982,4.2329998,0c1.1699982,1.1679993,1.1699982,3.0639992,0,4.2329979
		c-1.1689987,1.1689987-3.0639992,1.1689987-4.2329998,0S21.4207306,44.7472763,22.5897312,43.5782738z M15.6357317,46.0072746
		c0.9069986-0.9080009,2.3779993-0.9070015,3.2839994,0c0.9069996,0.9059982,0.9069996,2.3769989,0,3.2840004
		c-0.9060001,0.9070015-2.3780003,0.9070015-3.2839994,0C14.7277327,48.385273,14.7277327,46.9142761,15.6357317,46.0072746z
		 M15.362731,53.2542763c1.1689997-1.1679993,3.0639982-1.1679993,4.2329988,0c1.1700001,1.1689987,1.1700001,3.0639992,0,4.2339973
		c-1.1690006,1.1689987-3.0639992,1.1689987-4.2329988,0C14.1927309,56.3192749,14.1927309,54.423275,15.362731,53.2542763z
		 M12.9587317,43.4322739c0.677,0.6759987,0.677,1.7719994,0,2.4490013c-0.6760006,0.6769981-1.7730007,0.6769981-2.448,0
		c-0.6779995-0.6749992-0.6779995-1.7719994,0-2.4490013C11.1857309,42.7562752,12.2827311,42.7562752,12.9587317,43.4322739z"/>
	<path class="st0" d="M16.7547302,17.4852772c-5.8719988,6.1160011-9.1689987,14.0740013-9.3409986,22.5510006h31.8930016
		L16.7547302,17.4852772z M17.6257305,20.8752766c0.9559994,0,1.7310009,0.776001,1.7310009,1.7320004
		s-0.7749996,1.7310009-1.730999,1.7310009c-0.9570007,0-1.730998-0.7749996-1.730998-1.730999
		C15.8937311,21.6512775,16.6687317,20.8752766,17.6257305,20.8752766z M14.1117315,37.2392731
		c-1.6529999,0-2.9939995-1.3400002-2.9939995-2.9939995c0-1.6529999,1.3409996-2.9929981,2.9939995-2.9929981
		s2.9939985,1.3399982,2.9939985,2.9929981C17.1057301,35.8992729,15.7657309,37.2392731,14.1117315,37.2392731z
		 M17.1057301,28.6432781c0-1.2820015,1.039999-2.3219986,2.3220005-2.3219986c1.2830009,0,2.323,1.0410004,2.323,2.3219986
		c0,1.2830009-1.039999,2.3230019-2.323,2.3230019C18.145731,30.9662762,17.1057301,29.9262753,17.1057301,28.6432781z
		 M20.6917305,38.9712753c-0.9570007,0-1.7320004-0.776001-1.7320004-1.730999c0-0.9570007,0.7749996-1.7319984,1.7320004-1.7319984
		c0.9559994,0,1.7320004,0.7750015,1.7320004,1.7319984C22.4247303,38.1952744,21.6477299,38.9712753,20.6917305,38.9712753z
		 M26.0637321,35.5072746c-1.6529999,0-2.9939995-1.3409996-2.9939995-2.9939995
		c0-1.652998,1.3409996-2.9929981,2.9939995-2.9929981s2.9939995,1.3400002,2.9939995,2.9929981
		C29.0577316,34.166275,27.7177315,35.5072746,26.0637321,35.5072746z M31.6887321,38.4522743
		c-0.9570007,0-1.7319984-0.776001-1.7319984-1.7319984s0.7750015-1.7319984,1.7319984-1.7319984
		c0.9560013,0,1.730999,0.7750015,1.730999,1.7319984S32.6447296,38.4522743,31.6887321,38.4522743z"/>
	<path class="st1" d="M41.6967316,75.5132751v4.5130005c10.3090019-0.1809998,19.6570015-4.3460007,26.5750046-11.0240021
		l-3.1910019-3.1910019C58.980732,71.6732712,50.7617302,75.3322754,41.6967316,75.5132751z"/>
	<path class="st1" d="M6.2207317,41.4362755H1.7057313C1.8877314,51.7442741,6.053731,61.093277,12.730731,68.0102768
		l3.1900005-3.1900024C10.0607309,58.7212753,6.400732,50.5012741,6.2207317,41.4362755z"/>
	<path class="st1" d="M13.7217321,69.0022736c6.9180002,6.677002,16.2669983,10.8430023,26.5739975,11.0240021v-4.5130005
		c-9.0629997-0.1809998-17.2840004-3.8399963-23.3840008-9.7020035L13.7217321,69.0022736z"/>
	<path class="st1" d="M80.287735,40.0352745c-0.1829987-10.309-4.3479996-19.6569977-11.0250015-26.5739975l-3.1900024,3.1900005
		c5.8600006,6.1000004,9.5210037,14.3190002,9.6999969,23.3840008C75.772728,40.0352783,80.287735,40.0352783,80.287735,40.0352745z
		"/>
	<path class="st1" d="M66.0717316,64.8202744l3.1900024,3.1900024c6.6780014-6.9169998,10.8430023-16.2669983,11.0250015-26.5750008
		h-4.5159988C75.5927353,50.5012741,71.9327316,58.7212753,66.0717316,64.8202744z"/>
	<path class="st1" d="M16.9117317,15.6602764c6.1000004-5.8600006,14.3199997-9.5200005,23.3840027-9.7010002V1.4462764
		c-10.3090019,0.1820002-19.656004,4.3470001-26.5740013,11.0239992L16.9117317,15.6602764z"/>
	<path class="st1" d="M15.921731,16.652277l-3.1900005-3.1900005C6.0537319,20.3792763,1.8877314,29.7272778,1.7057313,40.0352745
		h4.5149994C6.400732,30.9712772,10.0607309,22.751276,15.921731,16.652277z"/>
</g>
</svg>
